<svg width="290" height="181" viewBox="0 0 290 181" fill="none" xmlns="http://www.w3.org/2000/svg">
<g clip-path="url(#clip0)">
<g filter="url(#filter0_d)">
<path d="M159.754 4.20853L9.92871 90.7029L214.748 122.451L159.754 4.20853Z" stroke="#A446F5" stroke-width="5"/>
</g>
<g filter="url(#filter1_d)">
<path d="M144.598 29.956L74.0156 70.7034L170.58 85.4524L144.598 29.956Z" stroke="#A05BDD" stroke-width="6"/>
</g>
<g filter="url(#filter2_d)">
<path d="M91.8632 169.39L79.8078 162.43L84.2939 159.84C85.1715 159.334 86.1992 158.994 87.3771 158.82C88.5664 158.64 89.7558 158.64 90.9452 158.82C92.123 158.994 93.1507 159.334 94.0283 159.84L96.3493 161.18C97.2269 161.687 97.8216 162.284 98.1333 162.97C98.4336 163.65 98.4278 164.333 98.116 165.02C97.8158 165.7 97.2269 166.293 96.3493 166.8L91.8632 169.39ZM92.8026 154.928L101.29 150.029L101.931 150.399L94.0843 154.928L98.9688 157.748L105.793 153.808L106.434 154.178L99.6097 158.118L104.858 161.148L112.704 156.618L113.345 156.988L104.858 161.888L92.8026 154.928ZM117.125 154.806L105.07 147.846L105.745 147.456L122.339 147.316L114.163 142.597L114.804 142.227L126.859 149.186L126.219 149.556L123.239 147.836L106.542 147.956L117.766 154.436L117.125 154.806ZM129.947 147.384L117.891 140.425L118.567 140.035L135.178 139.905L126.985 135.175L127.626 134.805L139.681 141.765L129.947 147.384ZM139.339 128.063L139.98 128.433L136.377 130.513L147.15 136.732L150.753 134.653L151.394 135.023L143.582 139.532L142.941 139.162L146.527 137.092L135.753 130.873L132.168 132.943L131.527 132.573L139.339 128.063ZM154.793 126.401C153.615 126.854 152.599 127.194 151.744 127.421C150.89 127.634 150.082 127.727 149.32 127.701C148.557 127.661 147.853 127.454 147.206 127.081C146.537 126.694 146.121 126.254 145.959 125.761C145.809 125.261 145.913 124.748 146.271 124.221C146.641 123.688 147.247 123.178 148.09 122.691C148.898 122.224 149.81 121.898 150.826 121.711C151.843 121.511 152.853 121.474 153.858 121.601C154.862 121.728 155.757 122.018 156.542 122.471L155.901 122.841C155.22 122.448 154.452 122.198 153.598 122.091C152.743 121.984 151.889 122.018 151.034 122.191C150.168 122.358 149.383 122.644 148.679 123.051C148.055 123.411 147.57 123.804 147.224 124.231C146.877 124.658 146.733 125.088 146.791 125.521C146.86 125.948 147.201 126.337 147.813 126.691C148.367 127.011 148.973 127.174 149.631 127.181C150.278 127.181 150.948 127.081 151.641 126.881C152.333 126.681 153.246 126.367 154.377 125.941C155.52 125.508 156.444 125.194 157.149 125.001C157.853 124.794 158.592 124.708 159.366 124.741C160.151 124.768 160.919 124.998 161.669 125.431C162.42 125.864 162.853 126.347 162.968 126.881C163.084 127.401 162.94 127.924 162.535 128.451C162.131 128.977 161.542 129.464 160.769 129.911C159.81 130.464 158.788 130.847 157.703 131.061C156.617 131.274 155.555 131.307 154.516 131.161C153.477 131.001 152.535 130.677 151.692 130.191L152.333 129.821C153.072 130.247 153.881 130.527 154.758 130.661C155.647 130.787 156.56 130.761 157.495 130.581C158.419 130.394 159.308 130.054 160.162 129.561C161.225 128.947 161.848 128.294 162.033 127.601C162.229 126.901 161.889 126.297 161.011 125.791C160.411 125.444 159.799 125.264 159.175 125.251C158.552 125.238 157.94 125.324 157.339 125.511C156.739 125.684 155.89 125.981 154.793 126.401ZM206.655 89.1815L218.017 82.622L224.651 93.0113L206.655 89.1815ZM223.127 92.1313L217.671 83.5619L208.3 88.9715L223.127 92.1313ZM224.846 78.6999L225.521 78.3099L242.53 82.4096L241.837 82.8096L236.225 81.4497L230.284 84.8795L232.623 88.1293L231.947 88.5192L224.846 78.6999ZM229.921 84.3695L235.342 81.2397L226.006 78.9899L229.921 84.3695ZM250.45 78.1976C248.776 79.1642 247.09 79.6841 245.392 79.7575C243.695 79.8175 242.061 79.3875 240.49 78.4675L243.314 76.8377C243.96 77.2243 244.659 77.4009 245.41 77.3676C246.16 77.3343 246.899 77.1076 247.627 76.6877C248.227 76.341 248.602 76.011 248.753 75.6977C248.903 75.3844 248.776 75.1111 248.371 74.8778C248.037 74.6845 247.615 74.6478 247.107 74.7678C246.61 74.8811 246.16 75.0211 245.756 75.1878C245.34 75.3477 245.086 75.4477 244.994 75.4877C243.932 75.901 242.956 76.2244 242.067 76.4577C241.166 76.6843 240.242 76.7777 239.295 76.7377C238.348 76.6977 237.459 76.4377 236.628 75.9577C235.796 75.4777 235.312 74.9444 235.173 74.3578C235.023 73.7645 235.167 73.1746 235.606 72.5879C236.056 71.9946 236.714 71.448 237.581 70.948C238.631 70.3414 239.734 69.9314 240.889 69.7181C242.055 69.4981 243.256 69.4915 244.492 69.6981C245.092 69.7914 245.594 69.9281 245.998 70.1081C246.391 70.2814 246.755 70.4647 247.09 70.6581L244.266 72.2879C243.643 71.928 243.019 71.7613 242.396 71.788C241.761 71.808 241.091 72.0213 240.387 72.4279C239.821 72.7546 239.48 73.0646 239.365 73.3579C239.249 73.6512 239.359 73.8945 239.694 74.0878C240.063 74.3012 240.542 74.3378 241.131 74.1978C241.72 74.0578 242.402 73.8445 243.175 73.5579C244.422 73.0779 245.433 72.7279 246.206 72.5079C246.98 72.2746 247.823 72.1746 248.735 72.208C249.647 72.2413 250.542 72.5113 251.42 73.0179C252.251 73.4979 252.736 74.0445 252.875 74.6578C253.013 75.2711 252.863 75.891 252.425 76.5177C251.986 77.131 251.328 77.6909 250.45 78.1976ZM258.231 73.3455L246.176 66.386L246.817 66.016L252.515 69.3058L260.517 64.6861L254.819 61.3963L255.46 61.0263L267.515 67.9859L266.874 68.3559L261.158 65.0561L253.156 69.6758L258.872 72.9756L258.231 73.3455Z" fill="#9013FE"/>
</g>
</g>
<defs>
<filter id="filter0_d" x="0.015625" y="0.794922" width="223.067" height="132.158" filterUnits="userSpaceOnUse" color-interpolation-filters="sRGB">
<feFlood flood-opacity="0" result="BackgroundImageFix"/>
<feColorMatrix in="SourceAlpha" type="matrix" values="0 0 0 0 0 0 0 0 0 0 0 0 0 0 0 0 0 0 127 0"/>
<feOffset dy="4"/>
<feGaussianBlur stdDeviation="2"/>
<feColorMatrix type="matrix" values="0 0 0 0 0 0 0 0 0 0 0 0 0 0 0 0 0 0 0.4 0"/>
<feBlend mode="normal" in2="BackgroundImageFix" result="effect1_dropShadow"/>
<feBlend mode="normal" in="SourceGraphic" in2="effect1_dropShadow" result="shape"/>
</filter>
<filter id="filter1_d" x="62.9014" y="25.8647" width="116.884" height="81.577" filterUnits="userSpaceOnUse" color-interpolation-filters="sRGB">
<feFlood flood-opacity="0" result="BackgroundImageFix"/>
<feColorMatrix in="SourceAlpha" type="matrix" values="0 0 0 0 0 0 0 0 0 0 0 0 0 0 0 0 0 0 127 0"/>
<feOffset dy="15"/>
<feGaussianBlur stdDeviation="2"/>
<feColorMatrix type="matrix" values="0 0 0 0 0 0 0 0 0 0 0 0 0 0 0 0 0 0 0.4 0"/>
<feBlend mode="normal" in2="BackgroundImageFix" result="effect1_dropShadow"/>
<feBlend mode="normal" in="SourceGraphic" in2="effect1_dropShadow" result="shape"/>
</filter>
<filter id="filter2_d" x="75.8076" y="61.0264" width="195.707" height="116.363" filterUnits="userSpaceOnUse" color-interpolation-filters="sRGB">
<feFlood flood-opacity="0" result="BackgroundImageFix"/>
<feColorMatrix in="SourceAlpha" type="matrix" values="0 0 0 0 0 0 0 0 0 0 0 0 0 0 0 0 0 0 127 0"/>
<feOffset dy="4"/>
<feGaussianBlur stdDeviation="2"/>
<feColorMatrix type="matrix" values="0 0 0 0 0 0 0 0 0 0 0 0 0 0 0 0 0 0 0.25 0"/>
<feBlend mode="normal" in2="BackgroundImageFix" result="effect1_dropShadow"/>
<feBlend mode="normal" in="SourceGraphic" in2="effect1_dropShadow" result="shape"/>
</filter>
<clipPath id="clip0">
<rect width="289.661" height="180.773" fill="white"/>
</clipPath>
</defs>
</svg>
