<?xml version="1.0" standalone="no"?>
<!DOCTYPE svg PUBLIC "-//W3C//DTD SVG 20010904//EN"
 "http://www.w3.org/TR/2001/REC-SVG-20010904/DTD/svg10.dtd">
<svg version="1.0" xmlns="http://www.w3.org/2000/svg"
 width="111.000000pt" height="111.000000pt" viewBox="0 0 111.000000 111.000000"
 preserveAspectRatio="xMidYMid meet">
<metadata>
Created by potrace 1.11, written by Peter Selinger 2001-2013
</metadata>
<g transform="translate(0.000000,111.000000) scale(0.100000,-0.100000)"
fill="#000000" stroke="none">
<path d="M28 998 c11 -18 133 -230 272 -471 139 -241 256 -435 260 -430 5 4
126 213 270 463 144 250 264 458 267 463 2 4 -242 7 -542 7 l-547 0 20 -32z
m685 -360 c-80 -139 -149 -257 -153 -261 -4 -5 -54 72 -110 170 -57 98 -125
215 -151 261 l-49 82 304 0 304 0 -145 -252z"/>
<path d="M293 863 c173 -302 242 -421 252 -436 10 -15 27 9 125 180 63 109
123 213 133 231 l19 32 -267 0 c-146 0 -264 -3 -262 -7z"/>
</g>
</svg>
